# MagicaVoxel @ Ephtracy

# group
o 

# material
mtllib Girl.mtl
usemtl palette

# normals
vn -1 0 0
vn 1 0 0
vn 0 0 1
vn 0 0 -1
vn 0 -1 0
vn 0 1 0

# texcoords
vt 0.00195312 0.5
vt 0.0527344 0.5
vt 0.259766 0.5
vt 0.283203 0.5
vt 0.603516 0.5
vt 0.611328 0.5
vt 0.767578 0.5

# verts
v -0.5 0.3 0
v -0.5 0.3 -0.1
v -0.5 0.4 0
v -0.5 0.4 -0.1
v -0.4 0.4 0
v -0.4 0.4 -0.1
v -0.4 0.5 0
v -0.4 0.5 -0.1
v -0.3 0.3 0.2
v -0.3 0.3 -0.3
v -0.3 0.4 0.2
v -0.3 0.4 0
v -0.3 0.4 -0.1
v -0.3 0.4 -0.3
v -0.3 0.5 0.1
v -0.3 0.5 0
v -0.3 0.5 -0.1
v -0.3 0.6 0
v -0.3 0.6 -0.1
v -0.3 0.6 -0.2
v -0.3 0.7 0.2
v -0.3 0.7 0.1
v -0.3 0.7 -0.2
v -0.3 0.7 -0.3
v -0.3 0.8 -0.2
v -0.3 0.8 -0.3
v -0.3 0.9 -0.2
v -0.3 0.9 -0.3
v -0.3 1 0
v -0.3 1 -0.1
v -0.3 1.1 0.1
v -0.3 1.1 0
v -0.3 1.1 -0.1
v -0.3 1.1 -0.2
v -0.3 1.2 0.2
v -0.3 1.2 0.1
v -0.3 1.2 0
v -0.3 1.2 -0.1
v -0.3 1.2 -0.2
v -0.3 1.2 -0.3
v -0.2 0 0
v -0.2 0 -0.1
v -0.2 0.3 0
v -0.2 0.3 -0.1
v -0.2 0.4 0.1
v -0.2 0.4 -0.2
v -0.2 0.4 -0.3
v -0.2 0.5 0.1
v -0.2 0.5 0
v -0.2 0.5 -0.1
v -0.2 0.6 0.2
v -0.2 0.6 0.1
v -0.2 0.6 -0.1
v -0.2 0.6 -0.2
v -0.2 0.7 0.2
v -0.2 0.7 0.1
v -0.2 0.7 -0.2
v -0.2 0.7 -0.3
v -0.2 0.8 -0.2
v -0.2 0.8 -0.3
v -0.2 0.9 -0.2
v -0.2 0.9 -0.3
v -0.2 1 0
v -0.2 1 -0.1
v -0.2 1.1 0.1
v -0.2 1.1 0
v -0.2 1.1 -0.1
v -0.2 1.1 -0.2
v -0.2 1.2 0.1
v -0.2 1.2 0
v -0.2 1.2 -0.1
v -0.2 1.2 -0.2
v -0.2 1.3 0.1
v -0.2 1.3 -0.2
v 0.1 0 0
v 0.1 0 -0.1
v 0.1 0.3 0
v 0.1 0.3 -0.1
v 0.1 0.6 0.2
v 0.1 0.6 0.1
v 0.1 0.7 0.2
v 0.1 0.7 0.1
v 0.2 0.7 0.2
v 0.2 0.7 0.1
v 0.2 0.8 0.1
v 0.2 0.9 0.2
v 0.2 0.9 0.1
v 0.3 0.4 0
v 0.3 0.4 -0.1
v 0.3 0.5 0
v 0.3 0.5 -0.1
v 0.4 0.3 0
v 0.4 0.3 -0.1
v 0.4 0.4 0
v 0.4 0.4 -0.1
v -0.4 0.3 0
v -0.4 0.3 -0.1
v -0.4 0.4 0
v -0.4 0.4 -0.1
v -0.3 0.4 0
v -0.3 0.4 -0.1
v -0.3 0.5 0
v -0.3 0.5 -0.1
v -0.2 0.7 0.2
v -0.2 0.7 0.1
v -0.2 0.8 0.1
v -0.2 0.9 0.2
v -0.2 0.9 0.1
v -0.1 0 0
v -0.1 0 -0.1
v -0.1 0.3 0
v -0.1 0.3 -0.1
v -0.1 0.6 0.2
v -0.1 0.6 0.1
v -0.1 0.7 0.2
v -0.1 0.7 0.1
v 0.2 0 0
v 0.2 0 -0.1
v 0.2 0.3 0
v 0.2 0.3 -0.1
v 0.2 0.4 0.1
v 0.2 0.4 -0.2
v 0.2 0.4 -0.3
v 0.2 0.5 0.1
v 0.2 0.5 0
v 0.2 0.6 0.2
v 0.2 0.6 0.1
v 0.2 0.6 0
v 0.2 0.6 -0.2
v 0.2 0.7 0.2
v 0.2 0.7 0.1
v 0.2 0.9 -0.2
v 0.2 0.9 -0.3
v 0.2 1 0
v 0.2 1 -0.1
v 0.2 1.1 0.1
v 0.2 1.1 0
v 0.2 1.1 -0.1
v 0.2 1.1 -0.2
v 0.2 1.2 0.1
v 0.2 1.2 0
v 0.2 1.2 -0.1
v 0.2 1.2 -0.2
v 0.2 1.3 0.1
v 0.2 1.3 -0.2
v 0.3 0.3 0.2
v 0.3 0.3 -0.3
v 0.3 0.4 0.2
v 0.3 0.4 0
v 0.3 0.4 -0.1
v 0.3 0.4 -0.3
v 0.3 0.5 0.1
v 0.3 0.5 0
v 0.3 0.6 0
v 0.3 0.6 -0.2
v 0.3 0.7 0.2
v 0.3 0.7 0.1
v 0.3 0.9 -0.2
v 0.3 0.9 -0.3
v 0.3 1 0
v 0.3 1 -0.1
v 0.3 1.1 0.1
v 0.3 1.1 0
v 0.3 1.1 -0.1
v 0.3 1.1 -0.2
v 0.3 1.2 0.2
v 0.3 1.2 0.1
v 0.3 1.2 0
v 0.3 1.2 -0.1
v 0.3 1.2 -0.2
v 0.3 1.2 -0.3
v 0.4 0.4 0
v 0.4 0.4 -0.1
v 0.4 0.5 0
v 0.4 0.5 -0.1
v 0.5 0.3 0
v 0.5 0.3 -0.1
v 0.5 0.4 0
v 0.5 0.4 -0.1
v -0.3 0.3 0.2
v -0.3 0.4 0.2
v -0.3 0.7 0.2
v -0.3 1.2 0.2
v -0.2 0.6 0.2
v -0.2 0.7 0.2
v -0.2 0.9 0.2
v -0.1 0.6 0.2
v -0.1 0.7 0.2
v 0.1 0.6 0.2
v 0.1 0.7 0.2
v 0.2 0.6 0.2
v 0.2 0.7 0.2
v 0.2 0.9 0.2
v 0.3 0.3 0.2
v 0.3 0.4 0.2
v 0.3 0.7 0.2
v 0.3 1.2 0.2
v -0.3 0.5 0.1
v -0.3 0.7 0.1
v -0.2 0.4 0.1
v -0.2 0.5 0.1
v -0.2 0.6 0.1
v -0.2 0.7 0.1
v -0.2 0.8 0.1
v -0.2 0.9 0.1
v -0.2 1.2 0.1
v -0.2 1.3 0.1
v -0.1 0.6 0.1
v -0.1 0.7 0.1
v -0.1 0.8 0.1
v -0.1 0.9 0.1
v 0.1 0.6 0.1
v 0.1 0.7 0.1
v 0.1 0.8 0.1
v 0.1 0.9 0.1
v 0.2 0.4 0.1
v 0.2 0.5 0.1
v 0.2 0.6 0.1
v 0.2 0.7 0.1
v 0.2 0.8 0.1
v 0.2 0.9 0.1
v 0.2 1.2 0.1
v 0.2 1.3 0.1
v 0.3 0.5 0.1
v 0.3 0.7 0.1
v -0.5 0.3 0
v -0.5 0.4 0
v -0.4 0.3 0
v -0.4 0.4 0
v -0.4 0.5 0
v -0.3 0.4 0
v -0.3 0.5 0
v -0.3 1.1 0
v -0.3 1.2 0
v -0.2 0 0
v -0.2 0.3 0
v -0.2 1.1 0
v -0.2 1.2 0
v -0.1 0 0
v -0.1 0.3 0
v 0.1 0 0
v 0.1 0.3 0
v 0.2 0 0
v 0.2 0.3 0
v 0.2 1.1 0
v 0.2 1.2 0
v 0.3 0.4 0
v 0.3 0.5 0
v 0.3 1.1 0
v 0.3 1.2 0
v 0.4 0.3 0
v 0.4 0.4 0
v 0.4 0.5 0
v 0.5 0.3 0
v 0.5 0.4 0
v -0.3 1 -0.1
v -0.3 1.1 -0.1
v -0.2 1 -0.1
v -0.2 1.1 -0.1
v 0.2 1 -0.1
v 0.2 1.1 -0.1
v 0.3 1 -0.1
v 0.3 1.1 -0.1
v -0.3 1.1 -0.2
v -0.3 1.2 -0.2
v -0.2 1.1 -0.2
v -0.2 1.2 -0.2
v 0.2 1.1 -0.2
v 0.2 1.2 -0.2
v 0.3 1.1 -0.2
v 0.3 1.2 -0.2
v -0.3 1.1 0.1
v -0.3 1.2 0.1
v -0.2 1.1 0.1
v -0.2 1.2 0.1
v 0.2 1.1 0.1
v 0.2 1.2 0.1
v 0.3 1.1 0.1
v 0.3 1.2 0.1
v -0.3 1 0
v -0.3 1.1 0
v -0.2 1 0
v -0.2 1.1 0
v 0.2 0.5 0
v 0.2 0.6 0
v 0.2 1 0
v 0.2 1.1 0
v 0.3 0.5 0
v 0.3 0.6 0
v 0.3 1 0
v 0.3 1.1 0
v -0.5 0.3 -0.1
v -0.5 0.4 -0.1
v -0.4 0.3 -0.1
v -0.4 0.4 -0.1
v -0.4 0.5 -0.1
v -0.3 0.4 -0.1
v -0.3 0.5 -0.1
v -0.3 0.6 -0.1
v -0.3 1.1 -0.1
v -0.3 1.2 -0.1
v -0.2 0 -0.1
v -0.2 0.3 -0.1
v -0.2 0.5 -0.1
v -0.2 0.6 -0.1
v -0.2 1.1 -0.1
v -0.2 1.2 -0.1
v -0.1 0 -0.1
v -0.1 0.3 -0.1
v 0.1 0 -0.1
v 0.1 0.3 -0.1
v 0.2 0 -0.1
v 0.2 0.3 -0.1
v 0.2 1.1 -0.1
v 0.2 1.2 -0.1
v 0.3 0.4 -0.1
v 0.3 0.5 -0.1
v 0.3 1.1 -0.1
v 0.3 1.2 -0.1
v 0.4 0.3 -0.1
v 0.4 0.4 -0.1
v 0.4 0.5 -0.1
v 0.5 0.3 -0.1
v 0.5 0.4 -0.1
v -0.3 0.6 -0.2
v -0.3 0.7 -0.2
v -0.3 0.8 -0.2
v -0.3 0.9 -0.2
v -0.2 0.6 -0.2
v -0.2 0.7 -0.2
v -0.2 0.8 -0.2
v -0.2 0.9 -0.2
v -0.2 1.2 -0.2
v -0.2 1.3 -0.2
v 0.2 0.6 -0.2
v 0.2 0.9 -0.2
v 0.2 1.2 -0.2
v 0.2 1.3 -0.2
v 0.3 0.6 -0.2
v 0.3 0.9 -0.2
v -0.3 0.3 -0.3
v -0.3 0.4 -0.3
v -0.3 0.7 -0.3
v -0.3 0.8 -0.3
v -0.3 0.9 -0.3
v -0.3 1.2 -0.3
v -0.2 0.4 -0.3
v -0.2 0.7 -0.3
v -0.2 0.8 -0.3
v -0.2 0.9 -0.3
v 0.2 0.4 -0.3
v 0.2 0.9 -0.3
v 0.3 0.3 -0.3
v 0.3 0.4 -0.3
v 0.3 0.9 -0.3
v 0.3 1.2 -0.3
v -0.2 0 0
v -0.1 0 0
v 0.1 0 0
v 0.2 0 0
v -0.2 0 -0.1
v -0.1 0 -0.1
v 0.1 0 -0.1
v 0.2 0 -0.1
v -0.3 0.3 0.2
v 0.3 0.3 0.2
v -0.5 0.3 0
v -0.4 0.3 0
v -0.2 0.3 0
v -0.1 0.3 0
v 0.1 0.3 0
v 0.2 0.3 0
v 0.4 0.3 0
v 0.5 0.3 0
v -0.5 0.3 -0.1
v -0.4 0.3 -0.1
v -0.2 0.3 -0.1
v -0.1 0.3 -0.1
v 0.1 0.3 -0.1
v 0.2 0.3 -0.1
v 0.4 0.3 -0.1
v 0.5 0.3 -0.1
v -0.3 0.3 -0.3
v 0.3 0.3 -0.3
v -0.4 0.4 0
v -0.3 0.4 0
v 0.3 0.4 0
v 0.4 0.4 0
v -0.4 0.4 -0.1
v -0.3 0.4 -0.1
v 0.3 0.4 -0.1
v 0.4 0.4 -0.1
v -0.3 0.5 0.1
v -0.2 0.5 0.1
v 0.2 0.5 0.1
v 0.3 0.5 0.1
v -0.3 0.5 0
v -0.2 0.5 0
v 0.2 0.5 0
v 0.3 0.5 0
v -0.3 0.5 -0.1
v -0.2 0.5 -0.1
v -0.2 0.6 0.2
v -0.1 0.6 0.2
v 0.1 0.6 0.2
v 0.2 0.6 0.2
v -0.2 0.6 0.1
v -0.1 0.6 0.1
v 0.1 0.6 0.1
v 0.2 0.6 0.1
v 0.2 0.6 0
v 0.3 0.6 0
v -0.3 0.6 -0.1
v -0.2 0.6 -0.1
v -0.3 0.6 -0.2
v -0.2 0.6 -0.2
v 0.2 0.6 -0.2
v 0.3 0.6 -0.2
v -0.3 0.7 0.2
v -0.2 0.7 0.2
v 0.2 0.7 0.2
v 0.3 0.7 0.2
v -0.3 0.7 0.1
v -0.2 0.7 0.1
v 0.2 0.7 0.1
v 0.3 0.7 0.1
v -0.3 0.7 -0.2
v -0.2 0.7 -0.2
v -0.3 0.7 -0.3
v -0.2 0.7 -0.3
v -0.2 0.9 0.2
v 0.2 0.9 0.2
v -0.2 0.9 0.1
v -0.1 0.9 0.1
v 0.1 0.9 0.1
v 0.2 0.9 0.1
v -0.3 0.9 -0.2
v -0.2 0.9 -0.2
v 0.2 0.9 -0.2
v 0.3 0.9 -0.2
v -0.3 0.9 -0.3
v -0.2 0.9 -0.3
v 0.2 0.9 -0.3
v 0.3 0.9 -0.3
v -0.3 1.1 0
v -0.2 1.1 0
v 0.2 1.1 0
v 0.3 1.1 0
v -0.3 1.1 -0.1
v -0.2 1.1 -0.1
v 0.2 1.1 -0.1
v 0.3 1.1 -0.1
v -0.3 0.4 0.2
v 0.3 0.4 0.2
v -0.2 0.4 0.1
v 0.2 0.4 0.1
v -0.5 0.4 0
v -0.4 0.4 0
v -0.3 0.4 0
v 0.3 0.4 0
v 0.4 0.4 0
v 0.5 0.4 0
v -0.5 0.4 -0.1
v -0.4 0.4 -0.1
v -0.3 0.4 -0.1
v 0.3 0.4 -0.1
v 0.4 0.4 -0.1
v 0.5 0.4 -0.1
v -0.2 0.4 -0.2
v 0.2 0.4 -0.2
v -0.3 0.4 -0.3
v -0.2 0.4 -0.3
v 0.2 0.4 -0.3
v 0.3 0.4 -0.3
v -0.4 0.5 0
v -0.3 0.5 0
v 0.3 0.5 0
v 0.4 0.5 0
v -0.4 0.5 -0.1
v -0.3 0.5 -0.1
v 0.3 0.5 -0.1
v 0.4 0.5 -0.1
v -0.2 0.7 0.2
v -0.1 0.7 0.2
v 0.1 0.7 0.2
v 0.2 0.7 0.2
v -0.2 0.7 0.1
v -0.1 0.7 0.1
v 0.1 0.7 0.1
v 0.2 0.7 0.1
v -0.3 0.8 -0.2
v -0.2 0.8 -0.2
v -0.3 0.8 -0.3
v -0.2 0.8 -0.3
v -0.3 1 0
v -0.2 1 0
v 0.2 1 0
v 0.3 1 0
v -0.3 1 -0.1
v -0.2 1 -0.1
v 0.2 1 -0.1
v 0.3 1 -0.1
v -0.3 1.1 0.1
v -0.2 1.1 0.1
v 0.2 1.1 0.1
v 0.3 1.1 0.1
v -0.3 1.1 0
v -0.2 1.1 0
v 0.2 1.1 0
v 0.3 1.1 0
v -0.3 1.1 -0.1
v -0.2 1.1 -0.1
v 0.2 1.1 -0.1
v 0.3 1.1 -0.1
v -0.3 1.1 -0.2
v -0.2 1.1 -0.2
v 0.2 1.1 -0.2
v 0.3 1.1 -0.2
v -0.3 1.2 0.2
v 0.3 1.2 0.2
v -0.3 1.2 0.1
v -0.2 1.2 0.1
v 0.2 1.2 0.1
v 0.3 1.2 0.1
v -0.3 1.2 0
v -0.2 1.2 0
v 0.2 1.2 0
v 0.3 1.2 0
v -0.3 1.2 -0.1
v -0.2 1.2 -0.1
v 0.2 1.2 -0.1
v 0.3 1.2 -0.1
v -0.3 1.2 -0.2
v -0.2 1.2 -0.2
v 0.2 1.2 -0.2
v 0.3 1.2 -0.2
v -0.3 1.2 -0.3
v 0.3 1.2 -0.3
v -0.2 1.3 0.1
v 0.2 1.3 0.1
v -0.2 1.3 -0.2
v 0.2 1.3 -0.2

# faces
f 3/1/1 2/1/1 1/1/1
f 4/1/1 2/1/1 3/1/1
f 7/1/1 6/1/1 5/1/1
f 8/1/1 6/1/1 7/1/1
f 11/4/1 10/4/1 9/4/1
f 12/4/1 10/4/1 11/4/1
f 13/4/1 10/4/1 12/4/1
f 14/4/1 10/4/1 13/4/1
f 18/2/1 16/2/1 15/2/1
f 18/1/1 17/1/1 16/1/1
f 19/1/1 17/1/1 18/1/1
f 22/2/1 18/2/1 15/2/1
f 22/2/1 20/2/1 19/2/1
f 22/2/1 19/2/1 18/2/1
f 23/2/1 20/2/1 22/2/1
f 25/2/1 22/2/1 21/2/1
f 25/2/1 24/2/1 23/2/1
f 25/2/1 23/2/1 22/2/1
f 26/2/1 24/2/1 25/2/1
f 27/2/1 25/2/1 21/2/1
f 29/2/1 27/2/1 21/2/1
f 29/2/1 28/2/1 27/2/1
f 30/2/1 28/2/1 29/2/1
f 31/2/1 29/2/1 21/2/1
f 32/2/1 29/2/1 31/2/1
f 33/2/1 28/2/1 30/2/1
f 34/2/1 28/2/1 33/2/1
f 35/2/1 31/2/1 21/2/1
f 36/2/1 31/2/1 35/2/1
f 37/2/1 33/2/1 32/2/1
f 38/2/1 33/2/1 37/2/1
f 39/2/1 28/2/1 34/2/1
f 40/2/1 28/2/1 39/2/1
f 43/1/1 42/1/1 41/1/1
f 44/1/1 42/1/1 43/1/1
f 48/4/1 46/4/1 45/4/1
f 49/4/1 46/4/1 48/4/1
f 50/4/1 46/4/1 49/4/1
f 53/4/1 46/4/1 50/4/1
f 54/2/1 47/2/1 46/2/1
f 54/4/1 46/4/1 53/4/1
f 55/2/1 52/2/1 51/2/1
f 56/2/1 52/2/1 55/2/1
f 57/2/1 47/2/1 54/2/1
f 58/2/1 47/2/1 57/2/1
f 61/2/1 60/2/1 59/2/1
f 62/2/1 60/2/1 61/2/1
f 66/2/1 64/2/1 63/2/1
f 67/2/1 64/2/1 66/2/1
f 69/2/1 66/2/1 65/2/1
f 70/2/1 66/2/1 69/2/1
f 71/2/1 68/2/1 67/2/1
f 72/2/1 68/2/1 71/2/1
f 73/2/1 70/2/1 69/2/1
f 73/2/1 71/2/1 70/2/1
f 73/2/1 72/2/1 71/2/1
f 74/2/1 72/2/1 73/2/1
f 77/1/1 76/1/1 75/1/1
f 78/1/1 76/1/1 77/1/1
f 81/2/1 80/2/1 79/2/1
f 82/2/1 80/2/1 81/2/1
f 85/2/1 84/2/1 83/2/1
f 86/2/1 85/2/1 83/2/1
f 87/2/1 85/2/1 86/2/1
f 90/1/1 89/1/1 88/1/1
f 91/1/1 89/1/1 90/1/1
f 94/1/1 93/1/1 92/1/1
f 95/1/1 93/1/1 94/1/1
f 96/1/2 97/1/2 98/1/2
f 98/1/2 97/1/2 99/1/2
f 100/1/2 101/1/2 102/1/2
f 102/1/2 101/1/2 103/1/2
f 104/2/2 105/2/2 106/2/2
f 104/2/2 106/2/2 107/2/2
f 107/2/2 106/2/2 108/2/2
f 109/1/2 110/1/2 111/1/2
f 111/1/2 110/1/2 112/1/2
f 113/2/2 114/2/2 115/2/2
f 115/2/2 114/2/2 116/2/2
f 117/1/2 118/1/2 119/1/2
f 119/1/2 118/1/2 120/1/2
f 121/4/2 122/4/2 124/4/2
f 124/4/2 122/4/2 125/4/2
f 125/4/2 122/4/2 128/4/2
f 122/2/2 123/2/2 129/2/2
f 128/4/2 122/4/2 129/4/2
f 126/2/2 127/2/2 130/2/2
f 130/2/2 127/2/2 131/2/2
f 129/2/2 123/2/2 132/2/2
f 132/2/2 123/2/2 133/2/2
f 134/2/2 135/2/2 137/2/2
f 137/2/2 135/2/2 138/2/2
f 136/2/2 137/2/2 140/2/2
f 140/2/2 137/2/2 141/2/2
f 138/2/2 139/2/2 142/2/2
f 142/2/2 139/2/2 143/2/2
f 140/2/2 141/2/2 144/2/2
f 141/2/2 142/2/2 144/2/2
f 142/2/2 143/2/2 144/2/2
f 144/2/2 143/2/2 145/2/2
f 146/4/2 147/4/2 148/4/2
f 148/4/2 147/4/2 149/4/2
f 149/4/2 147/4/2 150/4/2
f 150/4/2 147/4/2 151/4/2
f 152/2/2 153/2/2 154/2/2
f 152/2/2 154/2/2 157/2/2
f 154/2/2 155/2/2 157/2/2
f 157/2/2 155/2/2 158/2/2
f 156/2/2 157/2/2 158/2/2
f 156/2/2 158/2/2 160/2/2
f 158/2/2 159/2/2 160/2/2
f 160/2/2 159/2/2 161/2/2
f 156/2/2 160/2/2 162/2/2
f 162/2/2 160/2/2 163/2/2
f 161/2/2 159/2/2 164/2/2
f 164/2/2 159/2/2 165/2/2
f 156/2/2 162/2/2 166/2/2
f 166/2/2 162/2/2 167/2/2
f 163/2/2 164/2/2 168/2/2
f 168/2/2 164/2/2 169/2/2
f 165/2/2 159/2/2 170/2/2
f 170/2/2 159/2/2 171/2/2
f 172/1/2 173/1/2 174/1/2
f 174/1/2 173/1/2 175/1/2
f 176/1/2 177/1/2 178/1/2
f 178/1/2 177/1/2 179/1/2
f 185/2/3 183/2/3 182/2/3
f 186/2/3 183/2/3 185/2/3
f 187/2/3 185/2/3 184/2/3
f 188/2/3 185/2/3 187/2/3
f 191/2/3 190/2/3 189/2/3
f 192/2/3 190/2/3 191/2/3
f 193/2/3 183/2/3 186/2/3
f 194/4/3 181/4/3 180/4/3
f 195/4/3 181/4/3 194/4/3
f 196/2/3 193/2/3 192/2/3
f 197/2/3 183/2/3 193/2/3
f 197/2/3 193/2/3 196/2/3
f 201/2/3 199/2/3 198/2/3
f 202/2/3 199/2/3 201/2/3
f 203/2/3 199/2/3 202/2/3
f 208/4/3 201/4/3 200/4/3
f 208/4/3 202/4/3 201/4/3
f 209/1/3 204/1/3 203/1/3
f 210/6/3 205/6/3 204/6/3
f 210/1/3 204/1/3 209/1/3
f 211/6/3 205/6/3 210/6/3
f 212/4/3 209/4/3 208/4/3
f 212/4/3 208/4/3 200/4/3
f 213/1/3 211/1/3 210/1/3
f 213/4/3 209/4/3 212/4/3
f 213/1/3 210/1/3 209/1/3
f 214/1/3 211/1/3 213/1/3
f 215/1/3 211/1/3 214/1/3
f 216/4/3 212/4/3 200/4/3
f 217/4/3 212/4/3 216/4/3
f 218/4/3 212/4/3 217/4/3
f 219/1/3 214/1/3 213/1/3
f 220/6/3 215/6/3 214/6/3
f 220/1/3 214/1/3 219/1/3
f 221/6/3 215/6/3 220/6/3
f 222/2/3 207/2/3 206/2/3
f 223/2/3 207/2/3 222/2/3
f 224/2/3 219/2/3 218/2/3
f 224/2/3 218/2/3 217/2/3
f 225/2/3 219/2/3 224/2/3
f 228/1/3 227/1/3 226/1/3
f 229/1/3 227/1/3 228/1/3
f 231/1/3 230/1/3 229/1/3
f 232/1/3 230/1/3 231/1/3
f 237/2/3 234/2/3 233/2/3
f 238/2/3 234/2/3 237/2/3
f 239/1/3 236/1/3 235/1/3
f 240/1/3 236/1/3 239/1/3
f 243/1/3 242/1/3 241/1/3
f 244/1/3 242/1/3 243/1/3
f 249/2/3 246/2/3 245/2/3
f 250/2/3 246/2/3 249/2/3
f 252/1/3 248/1/3 247/1/3
f 253/1/3 248/1/3 252/1/3
f 254/1/3 252/1/3 251/1/3
f 255/1/3 252/1/3 254/1/3
f 258/2/3 257/2/3 256/2/3
f 259/2/3 257/2/3 258/2/3
f 262/2/3 261/2/3 260/2/3
f 263/2/3 261/2/3 262/2/3
f 266/2/3 265/2/3 264/2/3
f 267/2/3 265/2/3 266/2/3
f 270/2/3 269/2/3 268/2/3
f 271/2/3 269/2/3 270/2/3
f 272/2/4 273/2/4 274/2/4
f 274/2/4 273/2/4 275/2/4
f 276/2/4 277/2/4 278/2/4
f 278/2/4 277/2/4 279/2/4
f 280/2/4 281/2/4 282/2/4
f 282/2/4 281/2/4 283/2/4
f 284/2/4 285/2/4 288/2/4
f 288/2/4 285/2/4 289/2/4
f 286/2/4 287/2/4 290/2/4
f 290/2/4 287/2/4 291/2/4
f 292/1/4 293/1/4 294/1/4
f 294/1/4 293/1/4 295/1/4
f 295/1/4 296/1/4 297/1/4
f 297/1/4 296/1/4 298/1/4
f 298/1/4 299/1/4 304/1/4
f 304/1/4 299/1/4 305/1/4
f 300/2/4 301/2/4 306/2/4
f 306/2/4 301/2/4 307/2/4
f 302/1/4 303/1/4 308/1/4
f 308/1/4 303/1/4 309/1/4
f 310/1/4 311/1/4 312/1/4
f 312/1/4 311/1/4 313/1/4
f 314/2/4 315/2/4 318/2/4
f 318/2/4 315/2/4 319/2/4
f 316/1/4 317/1/4 321/1/4
f 321/1/4 317/1/4 322/1/4
f 320/1/4 321/1/4 323/1/4
f 323/1/4 321/1/4 324/1/4
f 325/2/4 326/2/4 329/2/4
f 329/2/4 326/2/4 330/2/4
f 327/2/4 328/2/4 331/2/4
f 331/2/4 328/2/4 332/2/4
f 333/2/4 334/2/4 337/2/4
f 337/2/4 334/2/4 338/2/4
f 335/2/4 336/2/4 339/2/4
f 339/2/4 336/2/4 340/2/4
f 341/4/4 342/4/4 347/4/4
f 343/2/4 344/2/4 348/2/4
f 348/2/4 344/2/4 349/2/4
f 345/2/4 346/2/4 350/2/4
f 348/2/4 349/2/4 351/2/4
f 349/2/4 350/2/4 351/2/4
f 341/4/4 347/4/4 351/4/4
f 347/2/4 348/2/4 351/2/4
f 350/2/4 346/2/4 352/2/4
f 351/2/4 350/2/4 352/2/4
f 341/4/4 351/4/4 353/4/4
f 353/4/4 351/4/4 354/4/4
f 352/2/4 346/2/4 355/2/4
f 355/2/4 346/2/4 356/2/4
f 361/1/5 358/1/5 357/1/5
f 362/1/5 358/1/5 361/1/5
f 363/1/5 360/1/5 359/1/5
f 364/1/5 360/1/5 363/1/5
f 369/4/5 366/4/5 365/4/5
f 370/4/5 366/4/5 369/4/5
f 371/4/5 366/4/5 370/4/5
f 372/4/5 366/4/5 371/4/5
f 375/1/5 368/1/5 367/1/5
f 376/1/5 368/1/5 375/1/5
f 377/4/5 369/4/5 365/4/5
f 378/4/5 371/4/5 370/4/5
f 379/4/5 371/4/5 378/4/5
f 380/4/5 366/4/5 372/4/5
f 381/1/5 374/1/5 373/1/5
f 382/1/5 374/1/5 381/1/5
f 383/4/5 380/4/5 379/4/5
f 383/4/5 379/4/5 378/4/5
f 383/4/5 377/4/5 365/4/5
f 383/4/5 378/4/5 377/4/5
f 384/4/5 366/4/5 380/4/5
f 384/4/5 380/4/5 383/4/5
f 389/1/5 386/1/5 385/1/5
f 390/1/5 386/1/5 389/1/5
f 391/1/5 388/1/5 387/1/5
f 392/1/5 388/1/5 391/1/5
f 397/2/5 394/2/5 393/2/5
f 398/2/5 394/2/5 397/2/5
f 399/2/5 396/2/5 395/2/5
f 400/2/5 396/2/5 399/2/5
f 401/1/5 398/1/5 397/1/5
f 402/1/5 398/1/5 401/1/5
f 407/2/5 404/2/5 403/2/5
f 408/2/5 404/2/5 407/2/5
f 409/2/5 406/2/5 405/2/5
f 410/2/5 406/2/5 409/2/5
f 415/2/5 414/2/5 413/2/5
f 416/2/5 414/2/5 415/2/5
f 417/2/5 412/2/5 411/2/5
f 418/2/5 412/2/5 417/2/5
f 423/2/5 420/2/5 419/2/5
f 424/2/5 420/2/5 423/2/5
f 425/2/5 422/2/5 421/2/5
f 426/2/5 422/2/5 425/2/5
f 429/2/5 428/2/5 427/2/5
f 430/2/5 428/2/5 429/2/5
f 433/2/5 432/2/5 431/2/5
f 434/2/5 432/2/5 433/2/5
f 435/2/5 432/2/5 434/2/5
f 436/2/5 432/2/5 435/2/5
f 441/2/5 438/2/5 437/2/5
f 442/2/5 438/2/5 441/2/5
f 443/2/5 440/2/5 439/2/5
f 444/2/5 440/2/5 443/2/5
f 449/2/5 446/2/5 445/2/5
f 450/2/5 446/2/5 449/2/5
f 451/2/5 448/2/5 447/2/5
f 452/2/5 448/2/5 451/2/5
f 453/4/6 454/4/6 455/4/6
f 455/4/6 454/4/6 456/4/6
f 453/4/6 455/4/6 459/4/6
f 456/4/6 454/4/6 460/4/6
f 457/1/6 458/1/6 463/1/6
f 463/1/6 458/1/6 464/1/6
f 459/4/6 455/4/6 465/4/6
f 456/4/6 460/4/6 466/4/6
f 461/1/6 462/1/6 467/1/6
f 467/1/6 462/1/6 468/1/6
f 465/4/6 455/4/6 469/4/6
f 456/4/6 466/4/6 470/4/6
f 465/4/6 469/4/6 471/4/6
f 471/4/6 469/4/6 472/4/6
f 470/4/6 466/4/6 473/4/6
f 473/4/6 466/4/6 474/4/6
f 475/1/6 476/1/6 479/1/6
f 479/1/6 476/1/6 480/1/6
f 477/1/6 478/1/6 481/1/6
f 481/1/6 478/1/6 482/1/6
f 483/2/6 484/2/6 487/2/6
f 487/2/6 484/2/6 488/2/6
f 485/2/6 486/2/6 489/2/6
f 489/2/6 486/2/6 490/2/6
f 491/2/6 492/2/6 493/2/6
f 493/2/6 492/2/6 494/2/6
f 495/2/6 496/2/6 499/2/6
f 499/2/6 496/2/6 500/2/6
f 497/2/6 498/2/6 501/2/6
f 501/2/6 498/2/6 502/2/6
f 503/2/6 504/2/6 507/2/6
f 507/2/6 504/2/6 508/2/6
f 505/2/6 506/2/6 509/2/6
f 509/2/6 506/2/6 510/2/6
f 511/2/6 512/2/6 515/2/6
f 515/2/6 512/2/6 516/2/6
f 513/2/6 514/2/6 517/2/6
f 517/2/6 514/2/6 518/2/6
f 519/2/6 520/2/6 521/2/6
f 521/2/6 520/2/6 522/2/6
f 522/2/6 520/2/6 523/2/6
f 523/2/6 520/2/6 524/2/6
f 525/2/6 526/2/6 529/2/6
f 529/2/6 526/2/6 530/2/6
f 527/2/6 528/2/6 531/2/6
f 531/2/6 528/2/6 532/2/6
f 533/2/6 534/2/6 537/2/6
f 535/2/6 536/2/6 537/2/6
f 534/2/6 535/2/6 537/2/6
f 537/2/6 536/2/6 538/2/6
f 539/2/6 540/2/6 541/2/6
f 541/2/6 540/2/6 542/2/6
